<?xml version="1.0" encoding="UTF-8"?>
<svg id="Layer_2" xmlns="http://www.w3.org/2000/svg" width="12" height="15" version="1.1" viewBox="0 0 12 15">
  <!-- Generator: Adobe Illustrator 29.4.0, SVG Export Plug-In . SVG Version: 2.1.0 Build 152)  -->
  <rect x="8" width="1" height="1" fill="#080"/>
  <rect x="7" width="1" height="1" fill="#03bb00"/>
  <rect x="6" y="1" width="1" height="1" fill="#03bb00"/>
  <rect x="7" y="1" width="1" height="1" fill="#004401"/>
  <rect x="8" y="1" width="1" height="1" fill="#9acb65"/>
  <rect x="9" y="1" width="1" height="1" fill="#444"/>
  <rect x="6" y="2" width="1" height="1" fill="#080"/>
  <rect x="7" y="2" width="1" height="1" fill="#080"/>
  <rect x="8" y="2" width="1" height="1" fill="#444"/>
  <rect x="7" y="3" width="1" height="1" fill="#03bb00"/>
  <rect x="8" y="3" width="1" height="1" fill="#03bb00"/>
  <rect x="9" y="3" width="1" height="1" fill="#080"/>
  <rect x="4" y="3" width="1" height="1" fill="#080"/>
  <rect x="2" y="3" width="1" height="1" fill="#03bb00"/>
  <rect x="3" y="3" width="1" height="1" fill="#03bb00"/>
  <rect x="4" y="4" width="1" height="1" fill="#03bb00"/>
  <rect x="5" y="4" width="1" height="1" fill="#03bb00"/>
  <rect x="6" y="4" width="1" height="1" fill="#03bb00"/>
  <rect x="3" y="4" width="1" height="1" fill="#6f6"/>
  <rect x="2" y="4" width="1" height="1" fill="#ccfe99"/>
  <rect x="1" y="4" width="1" height="1" fill="#080"/>
  <rect x="7" y="4" width="1" height="1" fill="#080"/>
  <rect x="8" y="4" width="1" height="1" fill="#080"/>
  <rect x="9" y="4" width="1" height="1" fill="#027700"/>
  <rect x="10" y="4" width="1" height="1" fill="#444"/>
  <rect x="10" y="5" width="1" height="1" fill="#444"/>
  <rect x="10" y="6" width="1" height="1" fill="#444"/>
  <rect x="11" y="5" width="1" height="1" fill="#444"/>
  <rect x="9" y="6" width="1" height="1" fill="#444"/>
  <rect x="9" y="7" width="1" height="1" fill="#444"/>
  <rect x="9" y="5" width="1" height="1" fill="#9a6633"/>
  <rect x="7" y="5" width="1" height="1" fill="#f93"/>
  <rect x="8" y="5" width="1" height="1" fill="#f93"/>
  <rect x="7" y="6" width="1" height="1" fill="#f93"/>
  <rect x="5" y="5" width="2" height="2" fill="#fc3"/>
  <rect x="3" y="5" width="2" height="2" fill="#ff0"/>
  <rect x="2" y="6" width="1" height="1" fill="#ff0"/>
  <rect x="1" y="5" width="2" height="1" fill="#fff"/>
  <rect x="1" y="6" width="1" height="1" fill="#fff"/>
  <rect y="5" width="1" height="2" fill="#fc3"/>
  <rect x="8" y="6" width="1" height="3" fill="#9a6633"/>
  <rect x="9" y="8" width="1" height="1" fill="#9a6633"/>
  <rect x="6" y="7" width="2" height="1" fill="#cc6502"/>
  <rect x="7" y="8" width="1" height="1" fill="#cc6502"/>
  <rect x="6" y="8" width="1" height="1" fill="#ff6602"/>
  <rect x="2" y="7" width="4" height="2" fill="#ff6602"/>
  <rect x="1" y="7" width="1" height="1" fill="#ffc"/>
  <rect x="1" y="8" width="1" height="1" fill="#fc9"/>
  <rect y="7" width="1" height="2" fill="#cc6502"/>
  <rect y="9" width="1" height="1" fill="#bb0100"/>
  <rect x="1" y="9" width="1" height="1" fill="#f9c"/>
  <rect x="2" y="9" width="5" height="1" fill="#dc0100"/>
  <rect x="7" y="9" width="2" height="1" fill="#bb0100"/>
  <rect x="9" y="9" width="1" height="1" fill="#880101"/>
  <rect x="10" y="9" width="1" height="1" fill="#660001"/>
  <rect x="10" y="10" width="1" height="1" fill="#636"/>
  <rect x="11" y="10" width="1" height="3" fill="#444"/>
  <rect x="10" y="12" width="1" height="2" fill="#444"/>
  <rect x="9" y="13" width="1" height="2" fill="#444"/>
  <rect x="8" y="14" width="1" height="1" fill="#444"/>
  <rect x="5" y="13" width="2" height="1" fill="#444"/>
  <rect x="4" y="14" width="2" height="1" fill="#444"/>
  <rect x="9" y="11" width="1" height="1" fill="#636"/>
  <rect x="9" y="10" width="1" height="1" fill="#939"/>
  <rect x="10" y="11" width="1" height="1" fill="#939"/>
  <rect x="8" y="11" width="1" height="1" fill="#939"/>
  <rect x="7" y="10" width="2" height="1" fill="#cc329a"/>
  <rect x="6" y="11" width="2" height="1" fill="#cc329a"/>
  <rect x="1" y="11" width="2" height="1" fill="#cc329a"/>
  <rect x="1" y="10" width="1" height="1" fill="#cc329a"/>
  <rect x="2" y="10" width="5" height="1" fill="#ff0098"/>
  <rect x="3" y="11" width="3" height="1" fill="#ff0098"/>
  <rect x="3" y="12" width="2" height="1" fill="#36c"/>
  <rect x="7" y="12" width="2" height="1" fill="#36c"/>
  <rect x="5" y="12" width="1" height="1" fill="#008"/>
  <rect x="9" y="12" width="1" height="1" fill="#008"/>
  <rect x="7" y="13" width="2" height="1" fill="#008"/>
  <rect x="3" y="13" width="2" height="1" fill="#008"/>
  <rect x="6" y="12" width="1" height="1" fill="#033399"/>
  <rect x="2" y="12" width="1" height="1" fill="#00a"/>
</svg>